<svg xmlns="http://www.w3.org/2000/svg" width="100%" height="100%" viewBox="14000 19500 23000 12500" style="shape-rendering:geometricPrecision; text-rendering:geometricPrecision; image-rendering:optimizeQuality; fill-rule:evenodd; clip-rule:evenodd">
 <defs>
    <linearGradient id="id0" gradientUnits="userSpaceOnUse" x1="28045" y1="30262" x2="24181" y2="21850">
     <stop offset="0" stop-opacity="1" stop-color="#ED0600"/>
     <stop offset="1" stop-opacity="1" stop-color="#F58700"/>
    </linearGradient>
    <linearGradient id="id1" gradientUnits="userSpaceOnUse" x1="15941" y1="30897" x2="20729" y2="22634">
     <stop offset="0" stop-opacity="1" stop-color="#AD3461"/>
     <stop offset="1" stop-opacity="1" stop-color="#2A2774"/>
    </linearGradient>
    <linearGradient id="id2" gradientUnits="userSpaceOnUse" x1="32062" y1="27463" x2="29242" y2="30190">
     <stop offset="0" stop-opacity="1" stop-color="#21206E"/>
     <stop offset="1" stop-opacity="1" stop-color="#AD3461"/>
    </linearGradient>
    <linearGradient id="id3" gradientUnits="userSpaceOnUse" x1="30684" y1="19733" x2="34364" y2="27338">
     <stop offset="0" stop-opacity="1" stop-color="#ED0600"/>
     <stop offset="1" stop-opacity="1" stop-color="#F58700"/>
    </linearGradient>
    <linearGradient id="id4" gradientUnits="userSpaceOnUse" x1="33430" y1="26360" x2="32402" y2="28712">
     <stop offset="0" stop-opacity="1" stop-color="#100E3D"/>
     <stop offset="1" stop-opacity="1" stop-color="#28216D"/>
    </linearGradient>
    <linearGradient id="id5" gradientUnits="userSpaceOnUse" x1="30526" y1="28547" x2="27146" y2="29448">
     <stop offset="0" stop-opacity="1" stop-color="#990803"/>
     <stop offset="1" stop-opacity="1" stop-color="#EE1700"/>
    </linearGradient>
    <linearGradient id="id6" gradientUnits="userSpaceOnUse" x1="21266" y1="21116" x2="23331" y2="24358">
     <stop offset="0" stop-opacity="1" stop-color="#100E3D"/>
     <stop offset="1" stop-opacity="1" stop-color="#352872"/>
    </linearGradient>
 </defs>
 <g id="Layer_x0020_1">
  <g id="_1510894323552">
   <polygon fill="url(#id0)" points="27834,31022 27834,31022 27834,31022 27321,30136 27321,30136 27321,30136 27283,30070 27283,30070 27283,30070 26808,29249 26808,29249 26808,29249 26770,29183 26770,29183 26295,28363 26295,28363 26295,28363 25782,27476 25782,27476 25782,27476 25744,27410 25744,27410 25269,26590 25269,26590 25269,26590 25231,26524 24756,25703 24756,25703 24756,25703 24243,24817 24243,24817 24243,24817 23691,23864 22152,21205 22152,21205 21639,20318 21249,19644 26082,19644 26089,19655 26089,19655 26089,19655 28885,24485 28885,24485 28885,24485 30560,27380 30476,27525 30476,27525 30476,27525 30002,28345 30002,28345 30002,28345 29527,29166 29527,29166 29527,29166 28616,30740 28616,30740 28616,30740 28143,31556 "/>
   <polygon fill="url(#id1)" points="14785,30813 14785,30813 14785,30813 15298,29926 15298,29926 15298,29926 15811,29040 15811,29040 15811,29040 16285,28220 16285,28220 16285,28220 16324,28153 16324,28153 16324,28153 16798,27333 16798,27333 16837,27267 16837,27267 16837,27267 17311,26447 17311,26447 17311,26447 17350,26381 17350,26381 17350,26380 17825,25560 17825,25560 17825,25560 18338,24674 18338,24674 18338,24674 18812,23854 18812,23854 18851,23787 18851,23787 18851,23787 19325,22967 19364,22901 19364,22901 19364,22901 19838,22081 19838,22081 19838,22081 19877,22014 19877,22014 19877,22014 20351,21194 20351,21194 20351,21194 20826,20374 20864,20308 20864,20308 20864,20308 21249,19644 21601,20252 21601,20252 21601,20252 22075,21072 22075,21072 22075,21072 23666,23820 23454,24185 23416,24252 23416,24252 23416,24252 22941,25072 22941,25072 22941,25072 22466,25892 22428,25958 22428,25958 22428,25958 21953,26778 21953,26778 21953,26778 21479,27599 21479,27599 21479,27599 21440,27665 21440,27665 21440,27665 20966,28485 20966,28485 20966,28485 20491,29305 20491,29305 20491,29305 19978,30192 19978,30192 19978,30192 19188,31556 14354,31556 "/>
   <polygon fill="url(#id2)" points="28180,31494 28180,31494 28180,31493 28616,30740 28616,30740 28616,30740 29052,29986 29052,29986 29052,29986 29091,29919 29091,29919 29091,29919 29527,29166 29527,29166 29527,29166 29963,28412 29963,28412 29963,28412 30438,27592 30438,27592 30438,27592 30874,26838 30874,26838 30874,26838 31310,26084 31349,26018 31349,26018 31349,26018 31785,25264 31785,25264 31785,25264 32012,24872 32895,26398 32895,26398 32895,26398 34266,28768 34266,28768 34429,29048 34322,29232 34322,29232 34322,29232 32977,31556 28143,31556 "/>
   <polygon fill="url(#id3)" points="34343,28900 34343,28900 34343,28900 33830,28014 33830,28014 33830,28014 33317,27127 33317,27127 33317,27127 32804,26241 32804,26241 32804,26241 32766,26175 32291,25354 32291,25354 32291,25354 32253,25288 31778,24468 31778,24468 31778,24468 31740,24402 31740,24402 31740,24402 31227,23515 31227,23515 31227,23515 30714,22629 30714,22629 30714,22629 30200,21742 30200,21742 30200,21742 29687,20856 29687,20856 29687,20856 29174,19969 29174,19969 29174,19969 28986,19644 33820,19644 34252,20391 34252,20391 34253,20391 34291,20458 34291,20458 34291,20458 34329,20524 34766,21278 34766,21278 34766,21278 34804,21344 34804,21344 34804,21344 34842,21411 34842,21411 34842,21411 34881,21477 35279,22164 35279,22164 35279,22164 35317,22231 35317,22231 35317,22231 35355,22297 35355,22297 35355,22297 35394,22363 35394,22363 35394,22363 35792,23051 35792,23051 35792,23051 35830,23117 35830,23117 35830,23117 35868,23183 35868,23184 35868,23184 35907,23250 35907,23250 35907,23250 35945,23316 35945,23316 35945,23316 36305,23937 36305,23937 36305,23937 36343,24004 36343,24004 36343,24004 36381,24070 36381,24070 36382,24070 36420,24136 36420,24136 36420,24136 36458,24203 36458,24203 36458,24203 36497,24269 36497,24269 36497,24269 36535,24335 36535,24335 36818,24824 36818,24824 36818,24824 36846,24872 36605,25288 36566,25354 36566,25354 36566,25354 36528,25421 36528,25421 36528,25421 36490,25487 36490,25487 36490,25487 36451,25553 36451,25553 36451,25553 36413,25620 36413,25620 36413,25620 36375,25686 36374,25686 36374,25686 36015,26307 36015,26307 36015,26307 35977,26374 35977,26374 35977,26374 35938,26440 35938,26440 35938,26440 35900,26506 35900,26506 35900,26506 35861,26572 35861,26572 35861,26573 35464,27260 35464,27260 35425,27326 35425,27326 35425,27326 35387,27393 35387,27393 35387,27393 35348,27459 35348,27459 35348,27459 34874,28279 34874,28279 34874,28279 34835,28345 34835,28345 34835,28345 34429,29048 "/>
   <polygon fill="url(#id4)" points="32940,28904 32940,28904 32940,28904 32919,28866 32919,28865 32919,28865 32898,28827 32898,28827 32898,28827 32877,28789 32877,28789 32877,28789 32856,28750 32856,28750 32856,28750 31869,26939 31869,26939 31869,26939 31848,26901 31848,26901 31848,26901 31827,26862 31827,26862 31827,26862 31806,26824 31806,26824 31806,26824 31785,26785 31785,26785 31764,26747 31764,26747 31358,26002 31387,25951 31387,25951 31387,25951 31785,25264 31785,25264 31785,25264 32012,24872 32895,26398 32895,26398 32895,26398 34266,28768 34266,28768 34429,29048 34284,29298 34246,29365 34246,29365 34246,29365 34207,29431 34207,29431 34207,29431 33703,30302 "/>
   <polygon fill="url(#id5)" points="27796,30956 27796,30956 27796,30956 27757,30890 27757,30890 27206,29937 27206,29937 27206,29937 27007,29593 27370,29218 27370,29218 27370,29218 27799,28775 27799,28775 27799,28775 28337,28220 28337,28220 28337,28220 28766,27777 28766,27777 28766,27777 29195,27333 29195,27333 29195,27333 29625,26890 29625,26890 29625,26890 30033,26469 30560,27380 30476,27525 30476,27525 30476,27525 30002,28345 30002,28345 30002,28345 29527,29166 29527,29166 29527,29166 28616,30740 28616,30740 28616,30740 28143,31556 "/>
   <polygon fill="url(#id6)" points="22931,24681 22931,24681 22931,24681 22711,24395 22711,24395 22711,24395 22526,24154 22526,24154 22526,24154 22341,23913 22341,23913 22341,23913 21936,23386 21936,23386 21936,23386 21751,23145 21751,23145 21751,23145 21346,22618 21346,22618 21346,22618 21161,22377 21161,22377 21161,22377 20756,21850 20756,21850 20756,21850 20571,21610 20571,21610 20571,21610 20309,21268 20864,20308 20864,20308 20864,20308 21249,19644 21601,20252 21601,20252 21601,20252 22075,21072 22075,21072 22075,21072 23666,23820 23301,24450 23065,24857 "/>
  </g>
 </g>
</svg>
