<svg width="100" height="100" viewBox="0 0 100 100" fill="none" xmlns="http://www.w3.org/2000/svg">
  <defs>
    <linearGradient id="grad1" x1="20" y1="20" x2="80" y2="80" gradientUnits="userSpaceOnUse">
      <stop stop-color="#3B82F6"/>
      <stop offset="1" stop-color="#8B5CF6"/>
    </linearGradient>
    <linearGradient id="grad2" x1="80" y1="20" x2="20" y2="80" gradientUnits="userSpaceOnUse">
      <stop stop-color="#06B6D4"/>
      <stop offset="1" stop-color="#3B82F6"/>
    </linearGradient>
    <filter id="shadow" x="-10%" y="-10%" width="120%" height="120%">
      <feDropShadow dx="0" dy="2" stdDeviation="2" flood-opacity="0.2"/>
    </filter>
  </defs>
  
  <!-- Left Pillar -->
  <path d="M25 20C22.2386 20 20 22.2386 20 25V75C20 77.7614 22.2386 80 25 80H30C32.7614 80 35 77.7614 35 75V25C35 22.2386 32.7614 20 30 20H25Z" fill="url(#grad1)" filter="url(#shadow)"/>
  
  <!-- Diagonal -->
  <path d="M30 25L70 75C71.5 76.5 73.5 77 75 77C77.7614 77 80 74.7614 80 72V28C80 25.2386 77.7614 23 75 23H70L30 72V25Z" fill="url(#grad2)" fill-opacity="0.9" style="mix-blend-mode: overlay" />
  
  <!-- Right Pillar -->
  <path d="M70 20C67.2386 20 65 22.2386 65 25V75C65 77.7614 67.2386 80 70 80H75C77.7614 80 80 77.7614 80 75V25C80 22.2386 77.7614 20 75 20H70Z" fill="url(#grad1)" filter="url(#shadow)"/>

  <!-- Fluid Accent Curve -->
  <path d="M20 25C20 22.2386 22.2386 20 25 20H30L70 70V75C70 77.7614 67.7614 80 65 80H60L20 30V25Z" fill="white" fill-opacity="0.1" />
</svg>
