<svg xmlns="http://www.w3.org/2000/svg" width="100" height="100" viewBox="0 0 70555.56 70555.56" style="shape-rendering:geometricPrecision; text-rendering:geometricPrecision; image-rendering:optimizeQuality; fill-rule:evenodd; clip-rule:evenodd">
 <defs>
  <style type="text/css">
    .fil2 {fill:#FEFEFE;fill-rule:nonzero}
    .fil10 {fill:#F39A86;fill-rule:nonzero}
    .fil17 {fill:#1D1D1E;fill-rule:nonzero}
    .fil27 {fill:url(#id0)}
    .fil6 {fill:url(#id1)}
    .fil9 {fill:url(#id2)}
    .fil16 {fill:url(#id3)}
    .fil5 {fill:url(#id4)}
    .fil21 {fill:url(#id5)}
    .fil20 {fill:url(#id6)}
    .fil1 {fill:url(#id7)}
    .fil25 {fill:url(#id8)}
    .fil19 {fill:url(#id9)}
    .fil23 {fill:url(#id10)}
    .fil0 {fill:url(#id11)}
    .fil18 {fill:url(#id12)}
    .fil26 {fill:url(#id13)}
    .fil11 {fill:url(#id14)}
    .fil12 {fill:url(#id15)}
    .fil13 {fill:url(#id16)}
    .fil4 {fill:url(#id17)}
    .fil3 {fill:url(#id18)}
    .fil24 {fill:url(#id19)}
    .fil15 {fill:url(#id20)}
    .fil8 {fill:url(#id21)}
    .fil14 {fill:url(#id22)}
    .fil22 {fill:url(#id23)}
    .fil7 {fill:url(#id24)}
  </style>
  <linearGradient id="id0" gradientUnits="userSpaceOnUse" x1="47391.34" y1="36627.15" x2="47391.75" y2="36627.15">
   <stop offset="0" stop-color="#CE3C2E"/><stop offset="1" stop-color="#FCC249"/>
  </linearGradient>
  <linearGradient id="id1" gradientUnits="userSpaceOnUse" x1="22880.13" y1="35280.6" x2="47391.85" y2="35280.6">
   <stop offset="0" stop-color="#D94E37"/><stop offset="1" stop-color="#FED05E"/>
  </linearGradient>
  <linearGradient id="id2" gradientUnits="userSpaceOnUse" xlink:href="#id1" x1="47595.28" y1="34261.42" x2="47595.68" y2="34261.42"/>
  <linearGradient id="id3" gradientUnits="userSpaceOnUse" xlink:href="#id1" x1="47391.59" y1="36627.15" x2="47391.78" y2="36627.15"/>
  <linearGradient id="id4" gradientUnits="userSpaceOnUse" x1="43071.93" y1="20477.34" x2="44412.48" y2="43548.97">
   <stop offset="0" stop-color="#63C1C4"/><stop offset="1" stop-color="#216E9F"/>
  </linearGradient>
  <linearGradient id="id5" gradientUnits="userSpaceOnUse" x1="43071.93" y1="20477.34" x2="44412.48" y2="43548.97">
   <stop offset="0" stop-color="#4BBAB5"/><stop offset="1" stop-color="#234367"/>
  </linearGradient>
  <linearGradient id="id6" gradientUnits="userSpaceOnUse" xlink:href="#id5" x1="43071.93" y1="20477.34" x2="44412.48" y2="43548.97"/>
  <linearGradient id="id7" gradientUnits="objectBoundingBox" xlink:href="#id1" x1="18.6013%" y1="0.502699%" x2="52.0761%" y2="91.3274%"/>
  <linearGradient id="id8" gradientUnits="userSpaceOnUse" x1="43071.93" y1="20477.34" x2="44412.48" y2="43548.97">
   <stop offset="0" stop-color="#58BEBE"/><stop offset="1" stop-color="#1D5588"/>
  </linearGradient>
  <linearGradient id="id9" gradientUnits="userSpaceOnUse" xlink:href="#id0" x1="22880.13" y1="35280.6" x2="47391.94" y2="35280.6"/>
  <linearGradient id="id10" gradientUnits="userSpaceOnUse" xlink:href="#id5" x1="43071.93" y1="20477.34" x2="44412.48" y2="43548.97"/>
  <linearGradient id="id11" gradientUnits="userSpaceOnUse" x1="26400.99" y1="41210.44" x2="26894.86" y2="50311.72">
   <stop offset="0" stop-color="#198A68"/><stop offset="1" stop-color="#FBED5A"/>
  </linearGradient>
  <linearGradient id="id12" gradientUnits="userSpaceOnUse" xlink:href="#id8" x1="43071.93" y1="20477.34" x2="44412.48" y2="43548.97"/>
  <linearGradient id="id13" gradientUnits="userSpaceOnUse" xlink:href="#id0" x1="41263.89" y1="35280.6" x2="47391.85" y2="35280.6"/>
  <linearGradient id="id14" gradientUnits="userSpaceOnUse" x1="26400.99" y1="41210.44" x2="26894.86" y2="50311.72">
   <stop offset="0" stop-color="#1C6D51"/><stop offset="1" stop-color="#FBEC42"/>
  </linearGradient>
  <linearGradient id="id15" gradientUnits="userSpaceOnUse" x1="26400.99" y1="41210.44" x2="26894.86" y2="50311.72">
   <stop offset="0" stop-color="#1D5140"/><stop offset="1" stop-color="#FBE933"/>
  </linearGradient>
  <linearGradient id="id16" gradientUnits="userSpaceOnUse" xlink:href="#id0" x1="24155.74" y1="30469.06" x2="26695.76" y2="44509.76"/>
  <linearGradient id="id17" gradientUnits="userSpaceOnUse" xlink:href="#id14" x1="26400.99" y1="41210.44" x2="26894.86" y2="50311.72"/>
  <linearGradient id="id18" gradientUnits="userSpaceOnUse" xlink:href="#id14" x1="26400.99" y1="41210.44" x2="26894.86" y2="50311.72"/>
  <linearGradient id="id19" gradientUnits="userSpaceOnUse" x1="43071.93" y1="20477.34" x2="44412.48" y2="43548.97">
   <stop offset="0" stop-color="#3AB6AB"/><stop offset="1" stop-color="#25364E"/>
  </linearGradient>
  <linearGradient id="id20" gradientUnits="userSpaceOnUse" xlink:href="#id0" x1="22880.13" y1="35280.42" x2="47391.94" y2="35280.42"/>
  <linearGradient id="id21" gradientUnits="userSpaceOnUse" xlink:href="#id8" x1="43071.93" y1="20477.34" x2="44412.48" y2="43548.97"/>
  <linearGradient id="id22" gradientUnits="userSpaceOnUse" xlink:href="#id8" x1="43071.93" y1="20477.34" x2="44412.48" y2="43548.97"/>
  <linearGradient id="id23" gradientUnits="userSpaceOnUse" xlink:href="#id5" x1="43071.93" y1="20477.34" x2="44412.48" y2="43548.97"/>
  <linearGradient id="id24" gradientUnits="userSpaceOnUse" xlink:href="#id1" x1="22880.13" y1="35280.6" x2="47391.94" y2="35280.6"/>
 </defs>
 <g id="Layer_x0020_1">
  <g id="_1510431319664">
   <path class="fil0" d="M26538.09 50200.58c-1127.16,-0.38 -2090.22,-423.72 -2791.93,-1224.5 -664.96,-760.63 -1001.87,-1812.23 -1001.87,-3125.62 1.4,-86.09 3.9,-170.4 7.41,-253.31 1.39,-26.79 2.84,-53.29 4.23,-79.36 868.31,-1425.59 2325.17,-2108.21 3782.16,-2410.2l0 7092.99zm-3782.16 -4682.79c1.44,-29.29 3.18,-58.2 4.96,-87.15 1.1,-16.93 2.3,-34.24 3.46,-51.17 -3.13,45.54 -5.97,91.71 -8.42,138.32zm25.3 -344.31c2.45,-26.84 5.15,-53.29 7.89,-80.08 2.07,-19.05 4.23,-38.48 6.44,-57.53 -5.14,45.5 -9.91,91.39 -14.33,137.61zm24.48 -222.64c0.82,-6.68 1.64,-13.03 2.45,-19.72 0.53,-3.89 1.06,-7.79 1.54,-11.64 -1.34,10.59 -2.69,20.78 -3.99,31.36zm10.34 -79.02c0.91,-6.68 1.78,-13.42 2.69,-20.1 2.75,-18.66 5.34,-37.37 8.08,-55.74 -3.7,25.44 -7.26,50.11 -10.77,75.84zm21.21 -144.28c10.53,-67.72 22.03,-134.38 34.73,-200.37 3.17,-15.87 6.06,-31.74 9.13,-47.28 0.73,-3.51 1.45,-7.4 2.17,-10.91 34.24,-172.86 74.79,-337.25 121.01,-494.23 13.03,-44.83 26.78,-88.93 40.92,-132.7 59.98,-186.61 128.03,-361.58 203.93,-525.58 6.01,-13.42 12.31,-26.84 18.66,-39.87 32.9,-70.22 67.48,-137.94 103.45,-204.26 -245.48,453.68 -430.55,1000.09 -534,1655.2zm535.2 -1657.32c9.43,-18.03 19.24,-35.3 29.05,-52.95 64.98,-115.72 134.05,-225.42 206.77,-329.12 8.46,-12.36 17.26,-24.72 26.06,-36.69 62.82,-87.49 128.47,-170.74 196.14,-249.76 12.02,-14.14 24.04,-27.9 36.36,-41.65 173.19,-195.8 361.96,-365.82 561.65,-512.55 22.56,-16.6 45.12,-32.8 67.67,-48.39 6.74,-4.9 13.42,-9.52 20.15,-14.09 25.06,-17.27 50.07,-34.2 75.47,-50.79 27.89,-18.32 56.12,-36.36 84.35,-53.62l5.63 -3.52c19.77,-12.36 39.54,-24.38 59.64,-35.97 15.15,-9.19 30.68,-18.04 45.83,-26.84 12.17,-6.68 24.34,-13.75 36.51,-20.44 11.4,-6.35 22.84,-12.7 34.39,-19.04 21.5,-11.69 42.99,-22.95 64.49,-34.25 -614.22,320.32 -1158.9,807.52 -1550.16,1529.67zm1605.57 -1558.24c14.43,-7.07 28.9,-14.47 43.43,-21.49 8.99,-4.24 18.23,-8.85 27.22,-13.09 -23.47,11.31 -47.33,22.94 -70.65,34.58zm87.2 -42.32c8.56,-3.9 17.12,-8.13 25.77,-12.02 -8.41,3.89 -17.36,8.12 -25.77,12.02zm34.82 -16.26c5.53,-2.45 11.11,-5.29 16.69,-7.74 4.56,-2.12 9.42,-4.23 14.09,-6.35 -10.15,4.57 -20.68,9.52 -30.78,14.09zm49.15 -22.22c25.97,-11.97 52.04,-23.27 78.3,-34.19 21.93,-9.19 43.77,-18.37 65.84,-27.18 -48.33,19.72 -96.43,39.88 -144.14,61.37zm163.91 -69.11c7.55,-3.17 15.1,-6.01 22.7,-9.19 22.94,-8.85 45.88,-17.65 68.82,-26.11 27.47,-10.25 54.93,-20.11 82.39,-29.63 -58.24,20.44 -116.44,41.99 -173.91,64.93zm198.82 -73.78c4.43,-1.39 8.9,-2.79 13.37,-4.57 -4.56,1.78 -8.8,3.18 -13.37,4.57zm48.92 -16.21c9.57,-3.51 19.14,-6.68 28.76,-9.52 -9.48,2.84 -19.34,6.35 -28.76,9.52zm87 -28.23c12.55,-3.85 25.15,-7.74 37.76,-11.64 7.11,-2.11 14.23,-4.23 21.3,-6.35l0.53 0c-19.86,6.02 -39.77,12.03 -59.59,17.99zm70.22 -21.16c20.25,-6.01 40.64,-11.64 60.94,-17.27 -20.44,5.63 -40.55,11.26 -60.94,17.27zm101.82 -28.57c31.5,-8.8 63.2,-16.93 94.84,-25.06 -31.69,8.13 -63.24,16.26 -94.84,25.06zm115.52 -29.96c19.24,-4.96 38.29,-9.52 57.62,-14.14 32.99,-7.74 66.23,-15.15 99.27,-22.22 -52.33,11.3 -104.85,23.66 -156.89,36.36zm389.67 -81.14c10,-1.78 20.01,-3.56 30.01,-4.95 -9.95,1.39 -20.1,3.17 -30.01,4.95z"/>
   <path class="fil1" d="M22744.29 45850.46l0 -15459.11 3793.8 5517.49 3794.09 5518.11 -3794.09 -5518.11 -3793.8 -5517.49 0 15459.11zm7587.89 -4423.51zm0 0"/>
   <path class="fil2" d="M22764.35 45379.47c4.62,-67 10,-132.6 16.11,-197.53 0.19,-1.78 0.34,-3.9 0.53,-5.68 -6.2,66.71 -11.78,134.43 -16.64,203.21zm31.21 -343.6c3.22,-28.56 6.64,-56.8 10.15,-85.03 -3.46,28.23 -6.83,56.47 -10.15,85.03zm14.14 -116.39c2.07,-15.87 4.19,-31.79 6.35,-47.66 -2.07,15.87 -4.23,31.79 -6.35,47.66zm17.12 -123.5c0.44,-2.79 0.87,-5.97 1.3,-8.81 0.72,-4.56 1.49,-9.52 2.26,-14.14 -1.25,7.8 -2.4,15.2 -3.56,22.95zm2122.35 -3269.18c3.9,-2.12 7.79,-3.9 11.69,-6.01 5.77,-2.79 11.35,-5.63 17.17,-8.81 -9.67,4.96 -19.24,9.86 -28.86,14.82zm101.29 -50.12c2.74,-1.39 5.53,-2.45 8.27,-3.85 2.31,-1.05 4.19,-2.11 6.5,-3.17 -4.96,2.45 -9.86,4.57 -14.77,7.02zm40.54 -19.04c3.18,-1.4 5.87,-2.84 9.05,-4.24 -3.03,1.4 -6.02,2.84 -9.05,4.24zm616.63 -231.78c3.27,-1.05 6.54,-2.11 9.81,-2.78 0.2,0 0.44,-0.39 0.63,-0.39 -3.46,1.06 -6.93,2.12 -10.44,3.17zm71.38 -20.44c3.99,-1.44 7.84,-2.5 11.83,-3.51 4.81,-1.44 9.67,-2.5 14.52,-3.89 -8.75,2.45 -17.55,4.9 -26.35,7.4zm322.33 -79.35c2.17,-0.39 4.38,-1.11 6.54,-1.45 13.95,-2.83 27.66,-5.62 41.6,-8.8 4.53,-0.72 9.05,-1.44 13.62,-2.5 -20.44,3.9 -41.27,8.47 -61.76,12.75zm415.02 -72.72c7.21,-1.06 14.42,-1.73 21.73,-2.79l0 0c20.11,-2.84 40.55,-5.29 60.7,-7.79 -20.15,2.5 -40.59,4.95 -60.7,8.12 -7.31,0.73 -14.52,1.4 -21.73,2.46z"/>
   <path class="fil3" d="M22755.93 45517.79c2.45,-46.61 5.29,-92.78 8.42,-138.32 4.86,-68.78 10.44,-136.5 16.64,-203.21 0.1,-0.67 0.14,-1.73 0.24,-2.78 4.42,-46.22 9.19,-92.11 14.33,-137.61 3.32,-28.56 6.69,-56.8 10.15,-85.03 1.3,-10.58 2.65,-20.77 3.99,-31.36 2.12,-15.87 4.28,-31.79 6.35,-47.66 3.51,-25.73 7.07,-50.4 10.77,-75.84 1.16,-7.75 2.31,-15.15 3.56,-22.95 2.26,-15.15 4.52,-30.3 6.88,-45.49 103.45,-655.11 288.52,-1201.52 534,-1655.2 0.34,-0.72 0.68,-1.11 1.01,-1.78 0.1,0 0.15,-0.34 0.19,-0.34 391.26,-722.15 935.94,-1209.35 1550.16,-1529.67 8.85,-4.57 17.7,-9.18 26.55,-13.75 9.62,-4.96 19.19,-9.86 28.86,-14.82 23.32,-11.64 47.18,-23.27 70.65,-34.58 0.58,0 1.15,-0.33 1.78,-0.72 4.91,-2.45 9.81,-4.57 14.77,-7.02 8.41,-3.9 17.36,-8.13 25.77,-12.02 3.03,-1.4 6.02,-2.84 9.05,-4.24 10.1,-4.57 20.63,-9.52 30.78,-14.09 1.06,-0.38 2.16,-1.06 3.22,-1.39 5.05,-2.17 10.1,-4.62 15.15,-6.74 47.71,-21.49 95.81,-41.65 144.14,-61.37 4.67,-1.78 9.28,-3.55 13.9,-5.29 1.97,-0.72 3.9,-1.78 5.87,-2.45 57.47,-22.94 115.67,-44.49 173.91,-64.93 6.78,-2.5 13.52,-4.57 20.25,-7.07 1.54,-0.67 3.08,-1.06 4.66,-1.78 4.57,-1.39 8.81,-2.79 13.37,-4.57 4.72,-1.39 9.43,-2.83 14.05,-4.57 7.16,-2.45 14.33,-4.95 21.5,-7.07 9.42,-3.17 19.28,-6.68 28.76,-9.52 6.92,-2.45 13.8,-4.57 20.68,-6.68 12.5,-3.9 25.01,-7.8 37.56,-12.03 19.82,-5.96 39.73,-11.97 59.59,-17.99l0.19 0c3.51,-1.05 6.98,-2.11 10.44,-3.17 20.39,-6.01 40.5,-11.64 60.94,-17.27 8.8,-2.5 17.6,-4.95 26.35,-7.4 4.81,-1.45 9.72,-2.84 14.53,-3.9 31.6,-8.8 63.15,-16.93 94.84,-25.06 3.99,-0.67 7.99,-1.73 11.98,-2.83 2.88,-0.68 5.82,-1.4 8.7,-2.07 52.04,-12.7 104.56,-25.06 156.89,-36.36 3.03,-0.34 6.06,-1.06 9.04,-1.73 20.49,-4.28 41.32,-8.85 61.76,-12.75 12.31,-2.45 24.67,-4.9 37.37,-7.4 33.18,-6.35 66.32,-12.7 99.46,-18.33 8.37,-1.39 16.78,-3.17 25.15,-4.57 9.91,-1.78 20.06,-3.56 30.01,-4.95 4.19,-0.72 8.37,-1.4 12.6,-2.12 3.23,-0.72 6.69,-1.06 9.91,-1.44 13.71,-2.45 27.46,-4.57 41.27,-6.69 27.89,-4.57 55.69,-8.46 83.59,-12.36 4.71,-0.67 9.28,-1.39 13.9,-2.11 7.21,-1.06 14.42,-1.73 21.73,-2.46 20.11,-3.17 40.55,-5.62 60.7,-8.12 -20.15,2.5 -40.59,4.95 -60.7,8.12l0 2056.7c-1456.99,301.99 -2913.85,984.61 -3782.16,2410.2z"/>
   <path class="fil4" d="M27387.22 40990.2c33.95,-0.34 67.76,-0.68 101.48,-0.68 -33.62,0 -67.62,0.34 -101.48,0.68z"/>
   <path class="fil5" d="M43641.05 39175.71c-1294,-689.21 -2673.32,-2013.89 -3748.97,-3192.08l0 90.66 0 -11361.06c0,-1333.2 326.32,-2389.38 967.67,-3136.78 684.74,-796.94 1635.15,-1215.84 2754.13,-1215.84 9.19,0 18.37,0 27.17,0 1126.44,6.73 2082.14,423.23 2765.43,1209.59 652.32,749.81 984.99,1805.98 984.99,3143.03 0,-1337.05 -332.67,-2393.22 -984.99,-3143.03 -683.29,-786.36 -1638.99,-1202.86 -2765.43,-1209.59l0 18815.1zm-3485.41 -2659.91l0 -0.05 0 0.05zm-17.31 -28.23c0,-0.39 -0.34,-0.77 -0.73,-1.16 0.39,0.29 0.73,0.82 0.73,1.16zm-1.06 -1.78c-0.34,-0.63 -0.68,-1.35 -1.06,-1.97 0.38,0.57 0.72,1.39 1.06,1.97zm-1.78 -2.89c0,-0.33 -0.34,-0.77 -0.68,-1.15 0.34,0.29 0.68,0.86 0.68,1.15zm-1.06 -2.06c-0.34,-0.34 -0.34,-0.58 -0.67,-0.92 0.33,0.39 0.33,0.48 0.67,0.92zm-5.96 -9.58c-0.39,-0.48 -0.39,-1.01 -0.73,-1.53 0,0.43 0.73,1.1 0.73,1.53zm-1.06 -1.92c-0.72,-1.3 -1.78,-2.69 -2.5,-3.99 1.06,1.39 1.78,2.55 2.5,3.99zm-4.23 -6.97c-1.45,-2.07 -2.51,-4.28 -3.9,-6.35 1.39,2.11 2.45,4.18 3.9,6.35zm-4.24 -7.07c-0.38,-0.48 -0.72,-1.16 -1.1,-1.69 0.38,0.48 0.72,1.21 1.1,1.69zm-1.44 -1.98c-100.9,-166.5 -170.74,-285.34 -203.88,-341.86 33.14,56.52 102.64,175.17 203.88,341.86zm-204.21 -342.39c0,-0.14 0,-0.28 0,-0.43 0,0.15 0,0.29 0,0.43zm-0.39 -0.91c-1.39,-2.6 -2.83,-4.95 -4.23,-7.21 1.4,2.26 2.84,4.66 4.23,7.21zm-4.57 -8.03c-1.05,-1.4 -1.78,-2.74 -2.5,-4.09 0.72,1.35 1.45,2.65 2.5,4.09zm-3.17 -5.29c0,0 0,-0.05 0,-0.1l0 0.1zm-0.38 -0.48c0,-0.24 -0.34,-0.48 -0.34,-0.72 0,0.24 0.34,0.53 0.34,0.72zm-0.68 -1.11c-0.33,-0.62 -0.72,-1.2 -1.06,-1.73 0.34,0.58 0.73,1.11 1.06,1.73zm-1.06 -1.97c-0.38,-0.48 -0.72,-0.96 -0.72,-1.44 -0.33,-0.24 -0.33,-0.44 -0.33,-0.72 -0.73,-1.16 -1.4,-2.27 -2.12,-3.32 1.06,1.63 2.12,3.56 3.17,5.48z"/>
   <path class="fil6" d="M43218.44 50200.58c-626.15,0 -1209.31,-94.89 -1732.15,-282.94 -540.11,-194.4 -1045.25,-498.84 -1503.5,-909.1 -403.62,-358.79 -781.79,-784.24 -1125.39,-1263.65 -295.64,-412.76 -591.62,-836.09 -879.13,-1253.08 -4.23,-8.46 -10.58,-14.81 -14.81,-23.66l-1697.96 -2602.77c-40.88,-293.52 -2602.72,-4155.72 -5633.1,-8635.5l-4.33 -4.33 -295.93 -455.75 0 15.1c-2622.2,-3872.82 -5538.17,-8132.47 -7451.98,-10916.71 60.51,-310.69 140.44,-593.97 239.8,-848.88 4.29,-10.58 8.61,-23.57 12.94,-34.15 330.46,-780.1 877.02,-1421.69 1622.16,-1905.53 351.09,-226.53 718.73,-400.15 1100.51,-520.39 -145.72,46.17 -289.38,99.56 -430.88,161.12l5892.49 8819.42 8438.74 11922.81c0,0 3679.82,5988.05 6057.93,5987.71 657.9,0 1216.38,-458.25 1569.5,-1628.45 5.29,-125.19 8.12,-253.99 8.12,-386.26l0 -8587.45c0,-6.01 0,-12.36 0.34,-18.37l0 8606.16c0,4300.39 -2918.18,4764.65 -4173.37,4764.65zm2702.28 -8200.72zm2.5 -1.06l-2.5 1.06zm2.5 -1.06c0.68,0 1.4,-0.33 1.73,-0.67 -0.72,0.34 -1.05,0.67 -1.73,0.67zm2.46 -0.67c153.08,-55.41 298.09,-147.46 432.47,-281.21 210.27,-208.45 396.21,-518.9 550.02,-949.31 0,-0.33 0,0 0,-0.33 0.67,-1.45 1.05,-2.84 1.39,-4.62 0.38,-0.34 0.38,-0.67 0.72,-1.06 0.34,-1.06 0.67,-2.45 1.06,-3.17 0.34,-0.68 0.67,-2.12 1.06,-2.79 0,-0.72 0.33,-1.45 0.72,-1.78 0.34,-1.4 0.67,-2.45 1.01,-3.9 0.38,-0.33 0.38,-0.67 0.38,-1.06 53.97,-152.75 104.08,-320.98 149.58,-504.47 -260,1046.36 -659,1580.8 -1138.41,1753.7zm1139.13 -1756.87c0.34,-0.34 0.34,-1.06 0.67,-1.4 -0.33,0.34 -0.33,1.06 -0.67,1.4zm327 -3411.49l0 -55.99c0,-21.3 0,-42.66 0,-64.11 0.39,-53.38 0,-107.3 0,-161.69 0,-8.71 0,-17.46 0,-26.17l0 -26.21c0.39,113.79 0.39,224.51 0,334.17zm-9583.22 -3908.46l-5796.05 -8769.84c-123.7,-195.26 -245.48,-387.64 -365.53,-576.66 120.05,189.02 241.83,380.92 365.57,576.66l5796.01 8769.84zm-7545.66 -11267.9c-12.89,-13.47 -25.78,-26.94 -38.67,-39.92 -16.59,-16.84 -33.28,-33.67 -50.16,-50.5 16.78,16.83 33.47,33.66 50.01,50.5 12.94,12.98 25.88,26.45 38.82,39.92zm-632.89 -545.89c-216.67,-151.98 -448.15,-284.72 -693.44,-397.26 -105.52,-48.1 -214.74,-91.38 -327.48,-129.86 112.84,38.48 222.06,81.76 327.68,129.86 245.19,112.54 476.62,245.28 693.24,397.26z"/>
   <path class="fil7" d="M45174.24 42010.44c-0.34,-0.33 -0.34,-0.33 -1.06,-0.33 0.33,0 0.72,0 1.06,0.33zm-3.52 -1.06c-1822.08,-485.76 -4225.6,-4201.16 -5015.08,-5493.58 580.32,950.03 2032.7,3209.35 3485.41,4532.26l0 0c523.52,476.96 1047.04,832.57 1529.67,961.32zm-5015.08 -5493.63c-5.68,-9.52 -11.69,-19 -17.31,-28.18 6.01,9.28 11.63,18.61 17.31,28.18zm-18.04 -29.34c0,-0.28 0,-0.33 -0.33,-0.62 0.33,0.24 0.33,0.38 0.33,0.62zm-1.39 -2.59c-0.34,-0.44 -0.34,-0.48 -0.72,-0.92 0.38,0.29 0.38,0.63 0.72,0.92zm-1.4 -2.07c0,-0.24 -0.38,-0.63 -0.38,-0.91 0,0.28 0.38,0.67 0.38,0.91zm-1.05 -1.83c-1.78,-2.88 -3.51,-5.77 -5.29,-8.66 1.78,2.89 3.51,5.78 5.29,8.66zm-6.02 -10.19c-0.33,-0.15 -0.33,-0.25 -0.33,-0.39 0,0.14 0,0.24 0.33,0.39zm-2.83 -4.38c-0.68,-1.01 -1.06,-2.02 -1.73,-2.98 0.67,1.01 1.05,1.92 1.73,2.98zm-5.63 -9.33c0,-0.29 -0.34,-0.43 -0.34,-0.72 0,0.29 0.34,0.43 0.34,0.72zm-1.44 -2.41l-0.34 -0.29c0,0.05 0.34,0.2 0.34,0.29zm-204.22 -342.15c0,-0.14 0,-0.38 -0.33,-0.53 0.33,0.2 0.33,0.34 0.33,0.53zm-0.33 -0.96c-0.39,-0.19 -0.39,-0.29 -0.39,-0.48 0,0.19 0,0.34 0.39,0.48zm-4.62 -7.69c0,-0.29 -0.34,-0.58 -0.34,-0.82 0,0.24 0.34,0.53 0.34,0.82zm-2.84 -4.91c-0.33,-0.38 -0.33,-0.82 -0.67,-1.2 0.34,0.38 0.34,0.82 0.67,1.2zm-0.67 -1.3c0,-0.14 -0.38,-0.24 -0.38,-0.38 0,0.14 0.38,0.24 0.38,0.38zm-0.72 -1.1c0,-0.15 0,-0.24 -0.34,-0.39 0.34,0.15 0.34,0.24 0.34,0.39zm-1.4 -2.12c0,-0.1 0,-0.14 0,-0.24 0,0.1 0,0.14 0,0.24zm-3.17 -5.72c-2.12,-3.66 -3.9,-6.59 -4.95,-8.76 1.05,2.17 2.83,5.1 4.95,8.76zm-5.68 -9.62c0,-0.05 0,-0.1 0,-0.15 0,0.05 0,0.1 0,0.15zm-0.67 -1.69c-0.38,-0.09 -0.38,-0.19 -0.38,-0.28 0,0.09 0,0.19 0.38,0.28zm-0.38 -0.43c0,-0.14 -0.34,-0.24 -0.34,-0.34 0,0.1 0.34,0.2 0.34,0.34zm-0.68 -0.91c0,0 0,0 0,0 0,0 0,0 0,0zm0 -0.05c0,-0.39 -0.38,-0.58 -0.38,-0.63 0,0.05 0.38,0.24 0.38,0.63z"/>
   <path class="fil8" d="M43641.05 41048.06c-1452.71,-1322.91 -2905.09,-3582.23 -3485.41,-4532.26l0 -0.05c-5.68,-9.57 -11.3,-18.9 -17.31,-28.18 0,-0.34 -0.34,-0.87 -0.73,-1.16 0,-0.24 0,-0.38 -0.33,-0.62 -0.34,-0.58 -0.68,-1.4 -1.06,-1.97 -0.34,-0.29 -0.34,-0.63 -0.72,-0.92 0,-0.29 -0.34,-0.86 -0.68,-1.15 0,-0.24 -0.38,-0.63 -0.38,-0.91 -0.34,-0.44 -0.34,-0.53 -0.67,-0.92 -1.78,-2.88 -3.51,-5.77 -5.29,-8.66 0,-0.43 -0.73,-1.1 -0.73,-1.53 -0.33,-0.15 -0.33,-0.25 -0.33,-0.39 -0.72,-1.44 -1.44,-2.6 -2.5,-3.99 -0.68,-1.06 -1.06,-1.97 -1.73,-2.98 -1.45,-2.17 -2.51,-4.24 -3.9,-6.35 0,-0.29 -0.34,-0.43 -0.34,-0.72 -0.38,-0.48 -0.72,-1.21 -1.1,-1.69 0,-0.09 -0.34,-0.24 -0.34,-0.29 -101.24,-166.69 -170.74,-285.34 -203.88,-341.86 0,-0.19 0,-0.33 -0.33,-0.53 0,-0.14 0,-0.28 0,-0.43 -0.39,-0.14 -0.39,-0.29 -0.39,-0.48 -1.39,-2.55 -2.83,-4.95 -4.23,-7.21 0,-0.29 -0.34,-0.58 -0.34,-0.82 -1.05,-1.44 -1.78,-2.74 -2.5,-4.09 -0.33,-0.38 -0.33,-0.82 -0.67,-1.2l0 -0.1c0,-0.14 -0.38,-0.24 -0.38,-0.38 0,-0.19 -0.34,-0.48 -0.34,-0.72 0,-0.15 0,-0.24 -0.34,-0.39 -0.33,-0.62 -0.72,-1.15 -1.06,-1.73 0,-0.1 0,-0.14 0,-0.24 -1.05,-1.92 -2.11,-3.85 -3.17,-5.48 -2.12,-3.66 -3.9,-6.59 -4.95,-8.76 -0.34,-0.33 -0.34,-0.62 -0.73,-0.86 0,-0.05 0,-0.1 0,-0.15 -0.33,-0.57 -0.67,-1.05 -0.67,-1.54 -0.38,-0.09 -0.38,-0.19 -0.38,-0.28 0,-0.05 0,-0.1 0,-0.15 0,-0.14 -0.34,-0.24 -0.34,-0.34 0,-0.24 0,-0.38 -0.34,-0.57 0,0 0,0 0,0 0,0 0,0 0,-0.05 0,-0.39 -0.38,-0.58 -0.38,-0.63l0 -0.04 0 -90.66c1075.65,1178.19 2454.97,2502.87 3748.97,3192.08l0 1872.35z"/>
   <path class="fil9" d="M47595.4 34439.14l0 -355.61c0.67,121.01 0.67,239.56 0,355.61z"/>
   <path class="fil10" d="M36265.5 43865.38c-40.88,-293.52 -2602.72,-4155.72 -5633.1,-8635.5l5633.1 8635.5z"/>
   <path class="fil11" d="M26539.15 50200.58l-1.06 0 0 -7092.99c772.61,-160.16 1545.02,-213.45 2229.8,-213.45 612.54,0 1155.2,42.71 1564.29,88.93l0 2867.39c0,1332.77 -347.82,2393.22 -1036.78,3153.47 -710.52,784.24 -1663.33,1196.65 -2756.25,1196.65zm3793.03 -8773.63c0,0 0,0 0,0 0,0 0,0 0,0zm-0.72 -0.34c-17.84,-5.62 -357.2,-117.11 -883.7,-226.14 526.4,109.03 865.91,220.52 883.7,226.14zm-883.8 -226.14c-1.05,-0.34 -1.73,-0.34 -2.78,-0.72 1.01,0.38 1.77,0.38 2.78,0.72zm-2270.57 -204.98c2.79,0 5.58,-0.34 8.37,-0.34 5.62,-0.33 10.91,-0.33 16.54,-0.67 2.65,0 5.24,0 7.84,0 -10.97,0.34 -21.79,0.67 -32.75,1.01z"/>
   <path class="fil12" d="M26538.09 43107.59l0 -2056.7c20.11,-3.17 40.55,-5.62 60.7,-8.12 25.35,-3.51 51.13,-6.35 76.52,-9.14 15.53,-1.78 31.02,-3.56 46.22,-4.96l4.95 -0.72c23.95,-2.45 47.62,-4.9 71.57,-7.02 102.35,-9.91 204.31,-16.93 305.93,-21.88 24.39,-1.06 48.77,-2.5 73.11,-3.56 10.96,-0.34 21.78,-0.67 32.75,-1.01 25.64,-0.72 51.22,-1.78 76.81,-2.5l5.67 0c31.75,-0.72 63.15,-1.4 94.9,-1.78 33.86,-0.34 67.86,-0.68 101.48,-0.68l0.05 0c0.28,0 0.48,0 0.76,0 746.2,0 1440.12,104.08 1955.37,210.23 1.05,0.38 1.73,0.38 2.78,0.72l0.1 0c526.5,109.03 865.86,220.52 883.7,226.14 0.44,0.34 0.68,0.34 0.72,0.34 0,0 0,0 0,0l0 1556.12c-409.09,-46.22 -951.75,-88.93 -1564.29,-88.93 -684.78,0 -1457.19,53.29 -2229.8,213.45z"/>
   <path class="fil1" d="M22744.29 45850.46l0 -15459.11 3793.8 5517.49 0 5141.72c-7.31,1.06 -14.52,1.73 -21.73,2.79 -4.62,0.72 -9.19,1.44 -13.9,2.11 -27.9,3.9 -55.7,7.79 -83.59,12.36 -13.81,2.12 -27.56,4.24 -41.27,6.69 -3.22,0.38 -6.68,0.72 -9.91,1.44 -4.23,0.72 -8.41,1.4 -12.6,2.12 -10,1.39 -20.01,3.17 -30.01,4.95 -8.37,1.4 -16.78,3.18 -25.15,4.57 -33.14,5.63 -66.28,11.98 -99.46,18.33 -12.7,2.5 -25.06,4.95 -37.37,7.4 -4.57,1.06 -9.09,1.78 -13.62,2.5 -13.94,2.79 -27.75,5.63 -41.6,8.8 -2.16,0.34 -4.37,1.06 -6.54,1.45 -2.98,0.67 -6.01,1.39 -9.04,1.73 -33.04,7.07 -66.28,14.48 -99.27,22.22 -19.33,4.62 -38.38,9.18 -57.62,14.14 -2.88,0.67 -5.82,1.39 -8.7,2.07 -3.99,1.1 -7.99,2.16 -11.98,2.83 -31.64,8.13 -63.34,16.26 -94.84,25.06 -4.81,1.06 -9.72,2.45 -14.53,3.9 -4.85,1.39 -9.71,2.45 -14.52,3.89 -24.63,6.69 -49.01,13.71 -73.4,21.17 -3.27,0.67 -6.54,1.73 -9.81,2.78l-0.72 0c-7.07,2.12 -14.19,4.24 -21.3,6.35 -12.61,3.9 -25.21,7.79 -37.76,11.64 -12.55,4.23 -25.06,8.13 -37.56,12.03 -6.88,2.11 -13.76,4.23 -20.68,6.68 -9.62,2.84 -19.19,6.01 -28.76,9.52 -7.17,2.12 -14.34,4.62 -21.5,7.07 -4.62,1.74 -9.33,3.18 -14.05,4.57 -4.47,1.78 -8.94,3.18 -13.37,4.57 -1.58,0.72 -3.12,1.11 -4.66,1.78 -6.73,2.5 -13.47,4.57 -20.25,7.07 -27.46,9.52 -54.92,19.38 -82.39,29.63 -22.94,8.46 -45.88,17.26 -68.82,26.11 -7.6,3.18 -15.15,6.02 -22.7,9.19 -1.97,0.67 -3.9,1.73 -5.87,2.45 -4.62,1.74 -9.23,3.51 -13.9,5.29 -22.07,8.81 -43.91,17.99 -65.84,27.18 -26.26,10.92 -52.33,22.22 -78.3,34.19 -5.05,2.12 -10.1,4.57 -15.15,6.74 -1.06,0.33 -2.16,1.01 -3.22,1.39 -4.67,2.12 -9.53,4.23 -14.09,6.35 -19.39,8.8 -38.82,17.99 -58.01,27.17 -2.74,1.4 -5.53,2.46 -8.27,3.85 -0.63,0.39 -1.2,0.72 -1.78,0.72 -8.99,4.24 -18.23,8.85 -27.22,13.09 -20.35,9.85 -40.5,20.05 -60.6,30.3 -3.9,2.11 -7.79,3.89 -11.69,6.01 -8.85,4.57 -17.7,9.18 -26.55,13.75 -21.5,11.3 -42.99,22.56 -64.49,34.25 -11.45,6.34 -22.9,12.31 -34.39,19.04 -12.17,6.69 -24.34,13.76 -36.51,20.44 -15.15,8.8 -30.68,17.65 -45.83,26.84 -20.1,11.59 -39.87,23.61 -59.64,35.97l-5.63 3.52c-28.23,17.26 -56.46,35.3 -84.35,53.62 -25.4,16.59 -50.41,33.52 -75.47,50.79 -6.73,4.57 -13.41,9.19 -20.15,14.09 -22.55,15.59 -45.11,31.79 -67.67,48.39 -199.69,146.73 -388.46,316.75 -561.65,512.55 -12.32,13.75 -24.34,27.51 -36.36,41.65 -67.67,79.02 -133.32,162.27 -196.14,249.76 -8.8,11.97 -17.6,24.33 -26.06,36.69 -72.72,103.7 -141.79,213.4 -206.77,329.12 -9.81,17.65 -19.62,34.92 -29.05,52.95 -0.04,0 -0.09,0.34 -0.19,0.34 -0.33,0.67 -0.67,1.06 -1.01,1.78 -35.97,66.32 -70.55,134.04 -103.45,204.26 -6.35,13.03 -12.65,26.45 -18.66,39.87 -75.9,164 -143.95,338.97 -203.93,525.58 -14.14,43.43 -27.89,87.87 -40.92,132.7 -46.22,156.98 -86.77,321.37 -121.01,494.23 -0.72,3.51 -1.44,7.4 -2.17,10.91 -3.12,15.88 -6.25,31.41 -9.13,47.28 -12.7,65.99 -24.2,132.65 -34.73,200.37 -2.36,15.19 -4.62,30.34 -6.88,45.49 -0.77,4.62 -1.54,9.58 -2.26,14.14 -3.36,21.5 -6.49,43.05 -9.38,64.55 -3.89,26.11 -7.4,52.57 -10.58,79.4 -7.07,53.24 -13.42,107.59 -19.04,162.28 -2.74,26.79 -5.44,53.24 -7.89,80.08 -0.1,1.05 -0.14,2.11 -0.24,2.78 -0.19,1.78 -0.34,3.9 -0.53,5.68 -7.89,81.47 -14.38,164.39 -19.57,248.7 -2.12,28.95 -3.52,57.86 -4.96,87.15 -1.73,26.07 -2.84,52.57 -4.23,79.36 -3.51,82.91 -6.01,167.22 -7.41,253.31zm3793.8 -9941.62l3794.09 5518.11 -3794.09 -5518.11z"/>
   <path class="fil13" d="M30332.18 41426.95c0,0 0,0 0,0 -0.04,0 -0.28,0 -0.72,-0.34 -17.79,-5.62 -357.3,-117.11 -883.7,-226.14l-0.1 0c-1.01,-0.34 -1.77,-0.34 -2.78,-0.72 -515.25,-106.15 -1209.17,-210.23 -1955.37,-210.23 -0.28,0 -0.48,0 -0.76,0l-0.05 0c-33.72,0 -67.53,0.34 -101.48,0.68 -31.75,0.38 -63.15,1.06 -94.9,1.78l-5.67 0c-25.59,0.72 -51.17,1.78 -76.81,2.5 -2.6,0 -5.19,0 -7.84,0 -5.63,0.34 -10.92,0.34 -16.54,0.67 -2.79,0 -5.58,0.34 -8.37,0.34 -24.34,1.06 -48.72,2.5 -73.11,3.56 -101.62,4.95 -203.58,11.97 -305.93,21.88 -23.95,2.12 -47.62,4.57 -71.57,7.02l-4.95 0.72c-15.2,1.4 -30.69,3.18 -46.22,4.96 -25.39,2.79 -51.17,5.63 -76.52,9.14 -20.15,2.5 -40.59,4.95 -60.7,7.79l0 -5141.72 3794.09 5518.11z"/>
   <path class="fil2" d="M45548.56 42062.29c-2220.41,0 -5656.48,-5987.86 -5656.48,-5987.86l-2083.49 -3153.12 2083.49 3152.98 0 0 0 0.04c0,0.05 0.38,0.24 0.38,0.63 0,0.05 0,0.05 0,0.05 0,0 0,0 0,0 0.34,0.19 0.34,0.33 0.34,0.57 0,0.1 0.34,0.2 0.34,0.34 0,0.05 0,0.1 0,0.15 0,0.09 0,0.19 0.38,0.28 0,0.49 0.34,0.97 0.67,1.54 0,0.05 0,0.1 0,0.15 0.39,0.24 0.39,0.53 0.73,0.86 1.39,2.79 3.89,6.83 7.07,12.08 0,0.28 0,0.48 0.33,0.72 204.98,353.59 3495.71,5969.53 5646.24,5970.59 128.41,0 252.93,-20.1 372.16,-62.43 -119.23,42.33 -243.75,62.43 -372.16,62.43zm372.16 -62.43c0.72,-0.33 1.78,-0.72 2.5,-1.06 -1.1,0.34 -1.44,0.73 -2.5,1.06zm4.23 -1.73c0.34,0 0.73,0 0.73,0 0,0 -0.39,0 -0.73,0zm1139.14 -1753.7c0.34,-1.39 0.72,-1.78 0.72,-3.17 0,1.39 -0.38,1.78 -0.72,3.17zm1.39 -4.57c28.57,-115.71 55.41,-237.06 80.47,-365.13 0,-0.68 0.33,-1.06 0.33,-1.74 0.34,-1.1 0.34,-2.5 0.68,-3.89 0.38,-1.78 0.72,-3.18 1.1,-4.96 0,-0.67 0,0 0,-0.33 144.96,-742.79 230.72,-1700.07 242.36,-2911.11 0.67,-50.69 1.05,-101.87 1.05,-153.52l0 48.96c-8.85,1478.21 -126.68,2586.42 -325.99,3391.72zm-15418.47 -16665.05c-158.71,-249.61 -314.49,-493.94 -468.2,-732.49 -302.57,-470.37 -609.13,-869.08 -915.88,-1188.91 306.75,319.35 613.26,718.54 915.97,1188.91 153.62,238.55 309.4,482.88 468.11,732.49zm-1472.91 -2011.82c-168.96,-167.37 -350.62,-319.36 -544.06,-455.47 193.44,136.11 375.1,288.1 544.06,455.47zm-1564.98 -982.59c-431.89,-146.69 -915.59,-219.79 -1441.31,-219.79 -452.24,0 -890.82,66.37 -1312.24,198.63 421.46,-132.26 860.04,-198.63 1312.24,-198.63 525.92,0 1009.47,73.1 1441.31,219.79z"/>
   <path class="fil14" d="M39902.32 36091.7c-0.33,-0.24 -0.33,-0.44 -0.33,-0.72 0,0.28 0,0.48 0.33,0.72zm-7.4 -12.8c-0.34,-0.33 -0.34,-0.62 -0.73,-0.86 0.39,0.24 0.39,0.53 0.73,0.86zm-0.73 -1.01c-0.33,-0.57 -0.67,-1.05 -0.67,-1.54 0,0.49 0.34,0.97 0.67,1.54zm-1.05 -1.82c0,-0.05 0,-0.1 0,-0.15 0,0.05 0,0.1 0,0.15zm-0.34 -0.49c0,-0.24 0,-0.38 -0.34,-0.57 0.34,0.19 0.34,0.33 0.34,0.57zm-0.34 -0.57c0,0 0,0 0,-0.05 0,0.05 0,0.05 0,0.05zm-0.38 -0.68l0 -0.04 0 0.04z"/>
   <path class="fil15" d="M45813.85 47450.3c-2378.11,0.34 -6057.93,-5987.71 -6057.93,-5987.71l-8438.74 -11922.81 -5892.49 -8819.42c141.5,-61.56 285.16,-114.95 430.88,-161.12 421.42,-132.26 860,-198.63 1312.24,-198.63 525.72,0 1009.42,73.1 1441.31,219.79 112.74,38.48 221.96,81.76 327.48,129.86 245.29,112.54 476.77,245.28 693.44,397.26 193.44,136.11 375.1,288.1 544.06,455.47 16.88,16.83 33.57,33.66 50.16,50.5 12.89,12.98 25.78,26.45 38.67,39.92 306.75,319.83 613.31,718.54 915.88,1188.91 153.71,238.55 309.49,482.88 468.2,732.49 120.05,189.02 241.83,381.4 365.53,576.66l5796.05 8769.84 2083.49 3153.12c0,0 3436.07,5987.86 5656.48,5987.86 128.41,0 252.93,-20.1 372.16,-62.43 1.06,-0.33 1.4,-0.72 2.5,-1.06 0.68,0 1.01,-0.33 1.73,-0.67 0.34,0 0.73,0 0.73,0 479.41,-172.9 878.41,-707.34 1138.41,-1753.7 0.34,-1.39 0.72,-1.78 0.72,-3.17 0.34,-0.34 0.34,-1.06 0.67,-1.4 199.31,-805.3 317.14,-1913.51 325.99,-3391.72l0 8587.45c0,132.27 -2.83,261.07 -8.12,386.26 -353.12,1170.2 -911.6,1628.45 -1569.5,1628.45z"/>
   <path class="fil16" d="M47391.81 36709.67c0,-53.38 0,-107.3 0,-161.69 0,54.39 0.39,108.31 0,161.69z"/>
   <path class="fil17" d="M47787.64 42146.6l17.65 0 0 -262.79 -35.31 0c0.34,51.17 0.34,101.62 0.34,151.69 0,37.03 0,74.12 -0.34,111.1l35.31 0 -17.65 0 17.65 0.39c0.33,-37.04 0.33,-74.46 0.33,-111.49 0,-50.45 0,-100.9 -0.33,-151.69l-35.31 0 0 262.79 35.31 0.39 -17.65 -0.39z"/>
   <path class="fil18" d="M45548.9 42061.95l-0.34 0 0.34 0c552.5,-0.37 1029.93,-371.46 1360.25,-1297.87l0.05 -0.15 0.05 -0.14 0.04 -0.15 0.4 -1.12c6.72,-18.87 13.37,-37.97 19.97,-57.3l3.16 -9.28c6.48,-19.11 12.89,-38.45 19.25,-58.02l2.67 -8.24c6.44,-19.94 12.82,-40.12 19.14,-60.53l3.05 -9.88c6.18,-20.11 12.3,-40.45 18.36,-61.01l2.72 -9.24c6.15,-21.01 12.24,-42.26 18.26,-63.75l2.5 -8.94c6.19,-22.24 12.33,-44.72 18.39,-67.47l1.36 -5.12c6.41,-24.15 12.74,-48.56 18.99,-73.28l0.52 -2.07c91.25,-361.33 165.7,-784.5 220.9,-1275.88 -35.64,318.59 -79.4,608.12 -130.87,871.3l0 0.33c-0.38,1.4 -0.72,3.52 -1.1,4.96 -0.34,1.39 -0.34,2.79 -0.68,3.89 0,0.68 -0.33,1.06 -0.33,1.74 -27.28,138.63 -56.61,269.77 -87.92,393.66l-0.52 2.07c-6.26,24.71 -12.58,49.15 -18.99,73.28l-1.36 5.12c-6.06,22.74 -12.19,45.24 -18.39,67.47l-2.5 8.94c-6.02,21.49 -12.11,42.74 -18.26,63.75l-2.72 9.24c-6.06,20.57 -12.18,40.9 -18.36,61.01l-3.05 9.88c-6.32,20.41 -12.7,40.59 -19.14,60.53l-2.67 8.24c-6.36,19.57 -12.77,38.91 -19.25,58.02l-3.16 9.28c-5.02,14.7 -10.07,29.26 -15.15,43.68 0,0.39 0,0.73 -0.38,1.06 -0.34,1.45 -0.67,2.5 -1.01,3.9 -0.39,0.72 -0.72,1.06 -0.72,1.78 -0.39,1.06 -0.72,1.73 -1.06,2.79 -0.39,1.06 -0.72,1.78 -1.06,3.17 -0.29,0.34 -0.34,0.63 -0.59,0.92l-0.13 0.14 -0.27 0.98 -0.04 0.15 -0.05 0.14 -0.05 0.15c-0.35,1.06 -0.75,2.21 -0.98,3.2l0 0.33c-153.81,430.41 -339.75,740.86 -550.02,949.31 -240.91,239.56 -514.33,345.03 -809.25,345.03zm-0.34 0l-5.37 -0.01 -0.32 0 -5.39 -0.04 -0.31 0 -5.41 -0.07 -0.29 0 -5.43 -0.09 -0.28 0 -5.45 -0.11 -0.26 -0.01 -5.47 -0.13 -0.25 -0.01 -5.49 -0.16 -0.24 -0.01c-108.94,-3.44 -220.37,-20.69 -334.36,-50.87 114.08,29.87 225.58,47.4 334.36,50.87l0.24 0.01 5.49 0.16 0.25 0.01 5.47 0.13 0.26 0.01 5.45 0.11 0.28 0 5.43 0.09 0.29 0 5.41 0.07 0.31 0 5.39 0.04 0.32 0 5.37 0.01zm-320.31 -2411.93c-492.5,0 -1032.27,-178.77 -1587.2,-474.31l0 -18815.1c1126.44,6.73 2082.14,423.23 2765.43,1209.59 652.32,749.81 984.99,1805.98 984.99,3143.03l0 12042.03 0 3.42 0 3.07 0 3.06 0 3.07 0 3.06c-0.04,61.3 -0.42,122.56 -1.05,182.58 -361.63,1967.38 -1166.65,2696.5 -2162.17,2696.5zm2163.22 -2891.34l0 -0.23 0 -0.23 0 -0.22 0 -0.23 0 -0.23 0 -0.23 0 -0.22 0 -0.23 0 -0.23 0 -0.23 0 -0.23 0 -0.22 0 -0.23 0 -0.23 0 -0.23c0,-3.69 0.1,-7.49 0.34,-11.2l0 29.72c-0.26,6.52 -0.32,13.01 -0.34,19.47l0 0.4 0 0.39 0 0.4 0 0.39 0 0.4 0 0.4 0 0.39 0 0.4 0 0.39 0 0.4 0 0.39 0 0.4 0 0.39 0 0.4 0 0.39 0 -0.39 0 -0.4 0 -0.39 0 -0.4 0 -0.39 0 -0.4 0 -0.39 0 -0.4 0 -0.39 0 -0.4 0 -0.4 0 -0.39 0 -0.4 0 -0.39 0 -0.4 0 -22.31 0 -3.06 0 -3.07 0 -3.06 0 -3.07z"/>
   <path class="fil19" d="M46358.15 41716.92c210.27,-208.45 396.21,-518.9 550.02,-949.31 -153.81,430.41 -339.75,740.86 -550.02,949.31zm550.02 -949.64c0.33,-1.45 1.05,-3.18 1.39,-4.62 -0.34,1.78 -0.72,3.17 -1.39,4.62zm2.11 -5.68c0.34,-1.39 0.67,-2.11 1.06,-3.17 -0.39,0.72 -0.72,2.11 -1.06,3.17zm2.12 -5.96c0,-0.72 0.33,-1.06 0.72,-1.78 -0.39,0.33 -0.72,1.06 -0.72,1.78zm1.73 -5.68c0.38,-0.33 0.38,-0.67 0.38,-1.06 0,0.39 0,0.73 -0.38,1.06zm477.68 -3976.18l0 -29.72c0,-11.4 0,-22.89 0,-34.39 0,21.45 0,42.81 0,64.11z"/>
   <path class="fil20" d="M45548.56 42061.95c-121.39,0 -246.25,-17.98 -374.32,-51.51 -0.34,-0.33 -0.73,-0.33 -1.06,-0.33 -0.68,-0.39 -1.4,-0.39 -2.46,-0.73 -482.63,-128.75 -1006.15,-484.36 -1529.67,-961.32l0 -1872.35c554.93,295.54 1094.7,474.31 1587.2,474.31 995.52,0 1800.54,-729.12 2162.17,-2696.5 -7.8,781.93 -46.22,1458.05 -111.49,2038.99 -252.59,2248.55 -908.42,3069.11 -1730.37,3069.44z"/>
   <path class="fil21" d="M47145.95 39874.73c0,-0.68 0.33,-1.06 0.33,-1.74 0,0.68 -0.33,1.06 -0.33,1.74z"/>
   <path class="fil22" d="M47146.96 39869.1c0.38,-1.44 0.72,-3.56 1.1,-4.96 -0.38,1.78 -0.72,3.18 -1.1,4.96z"/>
   <path class="fil23" d="M47148.06 39863.81c51.47,-263.18 95.23,-552.71 130.87,-871.3 65.6,-581.03 104.08,-1257.64 111.49,-2039.81 -11.64,1211.04 -97.4,2168.32 -242.36,2911.11zm242.36 -2910.29c0.67,-64.02 1.05,-129.43 1.05,-194.84l0 40.5c0,51.65 -0.38,102.83 -1.05,153.52 0,0.33 0,0.48 0,0.82z"/>
   <path class="fil24" d="M47278.93 38992.51c65.27,-580.94 103.69,-1257.06 111.49,-2038.99 0,-0.34 0,-0.49 0,-0.82 -7.41,782.17 -45.89,1458.78 -111.49,2039.81z"/>
   <path class="fil25" d="M47391.81 36523.78c-0.34,-9.47 -0.34,-18.85 -0.34,-28.28 0,8.76 0,17.51 0.34,26.31l0 1.97z"/>
   <path class="fil26" d="M47391.81 36547.98c0,-8.08 0,-16.12 0,-24.2l0 -1.97c0,8.71 0,17.46 0,26.17z"/>
   <path class="fil27" d="M47391.47 36758.68l0 -263.18c0,9.43 0,18.81 0.34,28.28 0,8.08 0,16.12 0,24.2 0,54.39 0,108.31 0,161.69 0,11.5 0,22.99 0,34.39 -0.34,4.91 -0.34,9.76 -0.34,14.62z"/>
  </g>
 </g>
</svg>
